<mxfile host="app.diagrams.net" agent="Mozilla/5.0 (X11; Linux x86_64) AppleWebKit/537.36 (KHTML, like Gecko) Chrome/126.0.0.0 Safari/537.36" version="24.7.7">
  <diagram name="Page-1" id="FvFkMVRPjeqaenA_b2ND">
    <mxGraphModel dx="1195" dy="683" grid="1" gridSize="10" guides="1" tooltips="1" connect="1" arrows="1" fold="1" page="1" pageScale="1" pageWidth="850" pageHeight="1100" math="0" shadow="0">
      <root>
        <mxCell id="0" />
        <mxCell id="1" parent="0" />
        <mxCell id="ZqFTVMTCQ6ywJbSDnxTU-48" value="" style="verticalLabelPosition=bottom;verticalAlign=top;html=1;shape=mxgraph.basic.polygon;polyCoords=[[0.5,0],[1,0],[1,0.67],[0.5,0.67],[0.5,1],[0,1],[0,0.33],[0.5,0.33]];polyline=0;dashed=1;dashPattern=8 8;" vertex="1" parent="1">
          <mxGeometry x="40" y="360" width="800" height="360" as="geometry" />
        </mxCell>
        <mxCell id="ZqFTVMTCQ6ywJbSDnxTU-32" value="" style="verticalLabelPosition=bottom;verticalAlign=top;html=1;shape=mxgraph.basic.polygon;polyCoords=[[0,0],[1,0],[1,0.21],[1,0.5],[0.5,0.5],[0.5,1],[0,1],[0,0.5]];polyline=0;dashed=1;shadow=0;gradientColor=none;gradientDirection=radial;fillColor=default;" vertex="1" parent="1">
          <mxGeometry x="40" y="240" width="800" height="240" as="geometry" />
        </mxCell>
        <mxCell id="ZqFTVMTCQ6ywJbSDnxTU-6" value="len_words" style="rounded=0;whiteSpace=wrap;html=1;shadow=0;strokeColor=default;container=0;" vertex="1" parent="1">
          <mxGeometry x="240" y="120" width="80" height="120" as="geometry" />
        </mxCell>
        <mxCell id="ZqFTVMTCQ6ywJbSDnxTU-7" value="" style="endArrow=none;html=1;rounded=0;exitX=1;exitY=0;exitDx=0;exitDy=0;shadow=0;strokeColor=default;" edge="1" parent="1" source="ZqFTVMTCQ6ywJbSDnxTU-6">
          <mxGeometry width="50" height="50" relative="1" as="geometry">
            <mxPoint x="460" y="110" as="sourcePoint" />
            <mxPoint x="320" y="100" as="targetPoint" />
          </mxGeometry>
        </mxCell>
        <mxCell id="ZqFTVMTCQ6ywJbSDnxTU-8" value="" style="endArrow=none;html=1;rounded=0;exitX=1;exitY=0;exitDx=0;exitDy=0;shadow=0;strokeColor=default;" edge="1" parent="1">
          <mxGeometry width="50" height="50" relative="1" as="geometry">
            <mxPoint x="240" y="120" as="sourcePoint" />
            <mxPoint x="240" y="100" as="targetPoint" />
          </mxGeometry>
        </mxCell>
        <mxCell id="ZqFTVMTCQ6ywJbSDnxTU-1" value="version" style="rounded=0;whiteSpace=wrap;html=1;shadow=0;strokeColor=default;container=0;" vertex="1" parent="1">
          <mxGeometry x="40" y="120" width="200" height="120" as="geometry" />
        </mxCell>
        <mxCell id="ZqFTVMTCQ6ywJbSDnxTU-3" value="" style="endArrow=none;html=1;rounded=0;exitX=1;exitY=0;exitDx=0;exitDy=0;shadow=0;strokeColor=default;" edge="1" parent="1">
          <mxGeometry width="50" height="50" relative="1" as="geometry">
            <mxPoint x="40" y="120" as="sourcePoint" />
            <mxPoint x="40" y="80" as="targetPoint" />
          </mxGeometry>
        </mxCell>
        <mxCell id="ZqFTVMTCQ6ywJbSDnxTU-14" value="checksum" style="rounded=0;whiteSpace=wrap;html=1;shadow=0;strokeColor=default;container=0;" vertex="1" parent="1">
          <mxGeometry x="440" y="120" width="400" height="120" as="geometry" />
        </mxCell>
        <mxCell id="ZqFTVMTCQ6ywJbSDnxTU-15" value="" style="endArrow=none;html=1;rounded=0;exitX=1;exitY=0;exitDx=0;exitDy=0;shadow=0;strokeColor=default;" edge="1" parent="1" source="ZqFTVMTCQ6ywJbSDnxTU-14">
          <mxGeometry width="50" height="50" relative="1" as="geometry">
            <mxPoint x="860" y="110" as="sourcePoint" />
            <mxPoint x="840" y="80" as="targetPoint" />
          </mxGeometry>
        </mxCell>
        <mxCell id="ZqFTVMTCQ6ywJbSDnxTU-20" value="frame_num" style="rounded=0;whiteSpace=wrap;html=1;shadow=0;strokeColor=default;container=0;" vertex="1" parent="1">
          <mxGeometry x="320" y="120" width="120" height="120" as="geometry" />
        </mxCell>
        <mxCell id="ZqFTVMTCQ6ywJbSDnxTU-21" value="" style="endArrow=none;html=1;rounded=0;exitX=1;exitY=0;exitDx=0;exitDy=0;shadow=0;strokeColor=default;" edge="1" parent="1">
          <mxGeometry width="50" height="50" relative="1" as="geometry">
            <mxPoint x="439.52" y="120" as="sourcePoint" />
            <mxPoint x="439.52" y="100" as="targetPoint" />
          </mxGeometry>
        </mxCell>
        <mxCell id="ZqFTVMTCQ6ywJbSDnxTU-22" value="0" style="text;html=1;align=center;verticalAlign=middle;whiteSpace=wrap;rounded=0;glass=0;" vertex="1" parent="1">
          <mxGeometry x="20" y="70" width="60" height="30" as="geometry" />
        </mxCell>
        <mxCell id="ZqFTVMTCQ6ywJbSDnxTU-23" value="7" style="text;html=1;align=center;verticalAlign=middle;whiteSpace=wrap;rounded=0;glass=0;" vertex="1" parent="1">
          <mxGeometry x="200" y="90" width="60" height="30" as="geometry" />
        </mxCell>
        <mxCell id="ZqFTVMTCQ6ywJbSDnxTU-24" value="8" style="text;html=1;align=center;verticalAlign=middle;whiteSpace=wrap;rounded=0;glass=0;" vertex="1" parent="1">
          <mxGeometry x="220" y="90" width="60" height="30" as="geometry" />
        </mxCell>
        <mxCell id="ZqFTVMTCQ6ywJbSDnxTU-25" value="9" style="text;html=1;align=center;verticalAlign=middle;whiteSpace=wrap;rounded=0;glass=0;" vertex="1" parent="1">
          <mxGeometry x="280" y="90" width="60" height="30" as="geometry" />
        </mxCell>
        <mxCell id="ZqFTVMTCQ6ywJbSDnxTU-26" value="10" style="text;html=1;align=center;verticalAlign=middle;whiteSpace=wrap;rounded=0;glass=0;" vertex="1" parent="1">
          <mxGeometry x="300" y="90" width="60" height="30" as="geometry" />
        </mxCell>
        <mxCell id="ZqFTVMTCQ6ywJbSDnxTU-27" value="15" style="text;html=1;align=center;verticalAlign=middle;whiteSpace=wrap;rounded=0;glass=0;" vertex="1" parent="1">
          <mxGeometry x="395" y="90" width="60" height="30" as="geometry" />
        </mxCell>
        <mxCell id="ZqFTVMTCQ6ywJbSDnxTU-28" value="16" style="text;html=1;align=center;verticalAlign=middle;whiteSpace=wrap;rounded=0;glass=0;" vertex="1" parent="1">
          <mxGeometry x="425" y="90" width="60" height="30" as="geometry" />
        </mxCell>
        <mxCell id="ZqFTVMTCQ6ywJbSDnxTU-29" value="31" style="text;html=1;align=center;verticalAlign=middle;resizable=0;points=[];autosize=1;strokeColor=none;fillColor=none;" vertex="1" parent="1">
          <mxGeometry x="810" y="70" width="40" height="30" as="geometry" />
        </mxCell>
        <mxCell id="ZqFTVMTCQ6ywJbSDnxTU-35" value="data_len" style="text;html=1;align=center;verticalAlign=middle;whiteSpace=wrap;rounded=0;" vertex="1" parent="1">
          <mxGeometry x="410" y="280" width="60" height="40" as="geometry" />
        </mxCell>
        <mxCell id="ZqFTVMTCQ6ywJbSDnxTU-39" value="" style="group" vertex="1" connectable="0" parent="1">
          <mxGeometry x="830" y="280" width="20" height="40" as="geometry" />
        </mxCell>
        <mxCell id="ZqFTVMTCQ6ywJbSDnxTU-36" value="" style="endArrow=none;html=1;rounded=0;" edge="1" parent="ZqFTVMTCQ6ywJbSDnxTU-39">
          <mxGeometry width="50" height="50" relative="1" as="geometry">
            <mxPoint y="20" as="sourcePoint" />
            <mxPoint x="20" as="targetPoint" />
          </mxGeometry>
        </mxCell>
        <mxCell id="ZqFTVMTCQ6ywJbSDnxTU-37" value="" style="endArrow=none;html=1;rounded=0;" edge="1" parent="ZqFTVMTCQ6ywJbSDnxTU-39">
          <mxGeometry width="50" height="50" relative="1" as="geometry">
            <mxPoint y="30" as="sourcePoint" />
            <mxPoint x="20" y="10" as="targetPoint" />
          </mxGeometry>
        </mxCell>
        <mxCell id="ZqFTVMTCQ6ywJbSDnxTU-38" value="" style="endArrow=none;html=1;rounded=0;" edge="1" parent="ZqFTVMTCQ6ywJbSDnxTU-39">
          <mxGeometry width="50" height="50" relative="1" as="geometry">
            <mxPoint y="40" as="sourcePoint" />
            <mxPoint x="20" y="20" as="targetPoint" />
          </mxGeometry>
        </mxCell>
        <mxCell id="ZqFTVMTCQ6ywJbSDnxTU-40" value="" style="group" vertex="1" connectable="0" parent="1">
          <mxGeometry x="30" y="280" width="20" height="40" as="geometry" />
        </mxCell>
        <mxCell id="ZqFTVMTCQ6ywJbSDnxTU-41" value="" style="endArrow=none;html=1;rounded=0;" edge="1" parent="ZqFTVMTCQ6ywJbSDnxTU-40">
          <mxGeometry width="50" height="50" relative="1" as="geometry">
            <mxPoint y="20" as="sourcePoint" />
            <mxPoint x="20" as="targetPoint" />
          </mxGeometry>
        </mxCell>
        <mxCell id="ZqFTVMTCQ6ywJbSDnxTU-42" value="" style="endArrow=none;html=1;rounded=0;" edge="1" parent="ZqFTVMTCQ6ywJbSDnxTU-40">
          <mxGeometry width="50" height="50" relative="1" as="geometry">
            <mxPoint y="30" as="sourcePoint" />
            <mxPoint x="20" y="10" as="targetPoint" />
          </mxGeometry>
        </mxCell>
        <mxCell id="ZqFTVMTCQ6ywJbSDnxTU-43" value="" style="endArrow=none;html=1;rounded=0;" edge="1" parent="ZqFTVMTCQ6ywJbSDnxTU-40">
          <mxGeometry width="50" height="50" relative="1" as="geometry">
            <mxPoint y="40" as="sourcePoint" />
            <mxPoint x="20" y="20" as="targetPoint" />
          </mxGeometry>
        </mxCell>
        <mxCell id="ZqFTVMTCQ6ywJbSDnxTU-49" value="" style="group" vertex="1" connectable="0" parent="1">
          <mxGeometry x="830" y="520" width="20" height="40" as="geometry" />
        </mxCell>
        <mxCell id="ZqFTVMTCQ6ywJbSDnxTU-50" value="" style="endArrow=none;html=1;rounded=0;" edge="1" parent="ZqFTVMTCQ6ywJbSDnxTU-49">
          <mxGeometry width="50" height="50" relative="1" as="geometry">
            <mxPoint y="20" as="sourcePoint" />
            <mxPoint x="20" as="targetPoint" />
          </mxGeometry>
        </mxCell>
        <mxCell id="ZqFTVMTCQ6ywJbSDnxTU-51" value="" style="endArrow=none;html=1;rounded=0;" edge="1" parent="ZqFTVMTCQ6ywJbSDnxTU-49">
          <mxGeometry width="50" height="50" relative="1" as="geometry">
            <mxPoint y="30" as="sourcePoint" />
            <mxPoint x="20" y="10" as="targetPoint" />
          </mxGeometry>
        </mxCell>
        <mxCell id="ZqFTVMTCQ6ywJbSDnxTU-52" value="" style="endArrow=none;html=1;rounded=0;" edge="1" parent="ZqFTVMTCQ6ywJbSDnxTU-49">
          <mxGeometry width="50" height="50" relative="1" as="geometry">
            <mxPoint y="40" as="sourcePoint" />
            <mxPoint x="20" y="20" as="targetPoint" />
          </mxGeometry>
        </mxCell>
        <mxCell id="ZqFTVMTCQ6ywJbSDnxTU-53" value="" style="group" vertex="1" connectable="0" parent="1">
          <mxGeometry x="30" y="520" width="20" height="40" as="geometry" />
        </mxCell>
        <mxCell id="ZqFTVMTCQ6ywJbSDnxTU-54" value="" style="endArrow=none;html=1;rounded=0;" edge="1" parent="ZqFTVMTCQ6ywJbSDnxTU-53">
          <mxGeometry width="50" height="50" relative="1" as="geometry">
            <mxPoint y="20" as="sourcePoint" />
            <mxPoint x="20" as="targetPoint" />
          </mxGeometry>
        </mxCell>
        <mxCell id="ZqFTVMTCQ6ywJbSDnxTU-55" value="" style="endArrow=none;html=1;rounded=0;" edge="1" parent="ZqFTVMTCQ6ywJbSDnxTU-53">
          <mxGeometry width="50" height="50" relative="1" as="geometry">
            <mxPoint y="30" as="sourcePoint" />
            <mxPoint x="20" y="10" as="targetPoint" />
          </mxGeometry>
        </mxCell>
        <mxCell id="ZqFTVMTCQ6ywJbSDnxTU-56" value="" style="endArrow=none;html=1;rounded=0;" edge="1" parent="ZqFTVMTCQ6ywJbSDnxTU-53">
          <mxGeometry width="50" height="50" relative="1" as="geometry">
            <mxPoint y="40" as="sourcePoint" />
            <mxPoint x="20" y="20" as="targetPoint" />
          </mxGeometry>
        </mxCell>
        <mxCell id="ZqFTVMTCQ6ywJbSDnxTU-57" value="payload" style="text;html=1;align=center;verticalAlign=middle;whiteSpace=wrap;rounded=0;" vertex="1" parent="1">
          <mxGeometry x="410" y="520" width="60" height="40" as="geometry" />
        </mxCell>
      </root>
    </mxGraphModel>
  </diagram>
</mxfile>
